<?xml version="1.0" encoding="UTF-8"?>
<svg xmlns="http://www.w3.org/2000/svg" width="1024" height="1024" viewBox="0 0 1024 1024">
  <defs>
    <!-- Gradient matching the app theme -->
    <radialGradient id="backgroundGradient" cx="50%" cy="40%" r="60%">
      <stop offset="0%" style="stop-color:#fafaff;stop-opacity:1" />
      <stop offset="100%" style="stop-color:#f2f5fa;stop-opacity:1" />
    </radialGradient>
    
    <!-- Shield gradient -->
    <linearGradient id="shieldGradient" x1="0%" y1="0%" x2="100%" y2="100%">
      <stop offset="0%" style="stop-color:#5a9cf8;stop-opacity:1" />
      <stop offset="50%" style="stop-color:#4682e6;stop-opacity:1" />
      <stop offset="100%" style="stop-color:#3d6fd4;stop-opacity:1" />
    </linearGradient>
    
    <!-- Subtle shadow -->
    <filter id="dropShadow" x="-20%" y="-20%" width="140%" height="140%">
      <feDropShadow dx="0" dy="8" stdDeviation="12" flood-color="#000000" flood-opacity="0.15"/>
    </filter>
    
    <!-- Inner glow -->
    <filter id="innerGlow" x="-20%" y="-20%" width="140%" height="140%">
      <feGaussianBlur stdDeviation="3" result="coloredBlur"/>
      <feMerge> 
        <feMergeNode in="coloredBlur"/>
        <feMergeNode in="SourceGraphic"/> 
      </feMerge>
    </filter>
  </defs>
  
  <!-- Background circle with gradient -->
  <circle cx="512" cy="512" r="500" fill="url(#backgroundGradient)" stroke="#c8d2e6" stroke-width="4"/>
  
  <!-- Main shield shape -->
  <path d="M 312 200 
           L 712 200 
           Q 742 200 742 230
           L 742 500
           Q 742 580 712 640
           L 512 820
           L 312 640
           Q 282 580 282 500
           L 282 230
           Q 282 200 312 200 Z" 
           fill="url(#shieldGradient)" 
           filter="url(#dropShadow)"/>
  
  <!-- Key symbol (OIDC authentication) -->
  <g fill="white" filter="url(#innerGlow)">
    <!-- Key head (circle) -->
    <circle cx="420" cy="380" r="45" fill="none" stroke="white" stroke-width="12"/>
    
    <!-- Key shaft -->
    <rect x="465" y="368" width="120" height="24" fill="white" rx="12"/>
    
    <!-- Key teeth -->
    <rect x="565" y="380" width="20" height="30" fill="white" rx="4"/>
    <rect x="565" y="420" width="15" height="25" fill="white" rx="3"/>
  </g>
  
  <!-- Shield inner detail -->
  <g fill="white" opacity="0.8">
    <!-- OIDC text representation -->
    <circle cx="550" cy="500" r="8" fill="white" opacity="0.9"/>
    <circle cx="580" cy="500" r="8" fill="white" opacity="0.9"/>
    <circle cx="610" cy="500" r="8" fill="white" opacity="0.9"/>
    
    <!-- Security badge elements -->
    <rect x="480" y="540" width="80" height="8" fill="white" opacity="0.7" rx="4"/>
    <rect x="500" y="560" width="60" height="6" fill="white" opacity="0.6" rx="3"/>
    <rect x="510" y="578" width="40" height="6" fill="white" opacity="0.5" rx="3"/>
  </g>
  
  <!-- Highlight for depth -->
  <ellipse cx="512" cy="300" rx="200" ry="40" fill="white" opacity="0.2"/>
</svg>
